<svg version="1.2" xmlns="http://www.w3.org/2000/svg" viewBox="0 0 1190 604" width="1190" height="604">
	<title>Logo_PA</title>
	<defs>
		<clipPath clipPathUnits="userSpaceOnUse" id="cp1">
			<path d="m0-528h1190v1684h-1190z"/>
		</clipPath>
		<clipPath clipPathUnits="userSpaceOnUse" id="cp2">
			<path d="m28 618.58h1133.82v-608.1h-1133.82z"/>
		</clipPath>
	</defs>
	<style>
		tspan { white-space:pre } 
		.t0 { font-size: 544px;fill: #ff6600;font-family: "Arial" } 
		.t1 { font-size: 543px;fill: #808080;font-family: "Arial" } 
		.s2 { fill: #ff6600;stroke: #ff6600;stroke-miterlimit:10;stroke-width: .4 } 
		.s3 { fill: #808080;stroke: #808080;stroke-miterlimit:10;stroke-width: .4 } 
		.s4 { fill: none;stroke: #808080;stroke-miterlimit:10;stroke-width: .4 } 
		.s5 { fill: none;stroke: #808080;stroke-linecap: round;stroke-linejoin: round;stroke-width: .4 } 
		.s6 { fill: #808080;stroke: #808080;stroke-linecap: round;stroke-miterlimit:10;stroke-width: .4 } 
	</style>
	<g id="Clip-Path: Page 1" clip-path="url(#cp1)">
		<g id="Page 1">
			<g id="Clip-Path: Mask" clip-path="url(#cp2)">
				<g id="Mask">
					<text id="P
" style="transform: matrix(1,0,0,1,25.12,455.68)" >
						<tspan x="0" y="0" class="t0">P
</tspan>
					</text>
					<text id="A
" style="transform: matrix(1,0,0,1,734.74,456.16)" >
						<tspan x="0" y="0" class="t1">A
</tspan>
					</text>
					<path id="Path 4" class="s2" d="m1120.6 484h-480.72l480.72 26.04zm-480.72 0l480.72 26.04h-480.72z"/>
					<path id="Path 5" class="s2" d="m396.54 484h-338.54l338.54 26.75zm-338.54 0l338.54 26.74h-338.54z"/>
					<path id="Path 6" class="s3" d="m629.2 70.42l2.82 2.88h-5.64z"/>
					<path id="Path 7" class="s3" d="m648.88 70.42l2.76 2.88h-5.64z"/>
					<path id="Path 8" class="s3" d="m651.64 73.3h-5.64l-7.8 13.32zm-5.64 0l-7.8 13.32h-5.64z"/>
					<path id="Path 9" class="s3" d="m632.02 73.3h-5.64l-7.8 13.32zm-5.64 0l-7.8 13.32h-5.64z"/>
					<path id="Path 10" class="s3" d="m722.98 86.62h-206.94l206.94 5.34zm-206.94 0l206.94 5.34h-206.94z"/>
					<path id="Path 11" class="s3" d="m591.22 108.16h5.7l-2.88 2.82z"/>
					<path id="Path 12" class="s3" d="m627.16 91.96l-16.26 16.2h5.64zm-16.26 16.2h5.64l-2.88 2.82z"/>
					<path id="Path 13" class="s3" d="m627.16 91.96h5.7l-16.32 16.2z"/>
					<path id="Path 14" class="s3" d="m613.18 91.96h-5.64l-10.62 16.2zm-5.64 0l-10.62 16.2h-5.7z"/>
					<path id="Path 15" class="s3" d="m521.38 91.96h-5.34l5.34 30.3zm-5.34 0l5.34 30.3h-5.34z"/>
					<path id="Path 16" class="s3" d="m515.44 122.26l11.76 0.3h-16.98zm6.54 0h-6.54l11.76 0.3z"/>
					<path id="Path 17" class="s3" d="m510.22 122.56l22.2 0.48h-27.42zm16.98 0h-16.98l22.2 0.48z"/>
					<path id="Path 18" class="s3" d="m505 123.04l32.58 0.72h-37.74zm27.42 0h-27.42l32.58 0.72z"/>
					<path id="Path 19" class="s3" d="m499.84 123.76l42.9 0.96h-48.06zm37.74 0h-37.74l42.9 0.96z"/>
					<path id="Path 20" class="s3" d="m494.68 124.72l53.16 1.2h-58.26zm48.06 0h-48.06l53.16 1.2z"/>
					<path id="Path 21" class="s3" d="m489.58 125.92l63.3 1.38h-68.34zm58.26 0h-58.26l63.3 1.38z"/>
					<path id="Path 22" class="s3" d="m484.54 127.3l73.32 1.62h-78.3zm68.34 0h-68.34l73.32 1.62z"/>
					<path id="Path 23" class="s3" d="m479.56 128.92l83.22 1.86h-88.14zm78.3 0h-78.3l83.22 1.86z"/>
					<path id="Path 24" class="s3" d="m474.64 130.78l92.94 2.04h-97.74zm88.14 0h-88.14l92.94 2.04z"/>
					<path id="Path 25" class="s3" d="m469.84 132.82l102.48 2.28h-107.16zm97.74 0h-97.74l102.48 2.28z"/>
					<path id="Path 26" class="s3" d="m465.16 135.1l107.46 0.18h-107.76zm107.16 0h-107.16l107.46 0.18z"/>
					<path id="Path 27" class="s3" d="m572.62 135.28h-53.88l54.06 0.12zm-53.88 0l54.06 0.12h-49.08z"/>
					<path id="Path 28" class="s3" d="m518.74 135.28h-53.88l48.9 0.12zm-53.88 0l48.9 0.12h-49.14z"/>
					<path id="Path 29" class="s3" d="m572.8 135.4h-49.08l49.74 0.36zm-49.08 0l49.74 0.36h-44.76z"/>
					<path id="Path 30" class="s3" d="m513.76 135.4h-49.14l44.16 0.36zm-49.14 0l44.16 0.36h-44.82z"/>
					<path id="Path 31" class="s3" d="m573.46 135.76h-44.76l45.84 0.54zm-44.76 0l45.84 0.54h-40.86z"/>
					<path id="Path 32" class="s3" d="m508.78 135.76h-44.82l39.84 0.54zm-44.82 0l39.84 0.54h-40.92z"/>
					<path id="Path 33" class="s3" d="m574.54 136.3h-40.86l42.42 0.84zm-40.86 0l42.42 0.84h-37.5z"/>
					<path id="Path 34" class="s3" d="m503.8 136.3h-40.92l36 0.84zm-40.92 0l36 0.84h-37.5z"/>
					<path id="Path 35" class="s3" d="m576.1 137.14h-37.5l38.34 0.42zm-37.5 0l38.34 0.42h-36.24z"/>
					<path id="Path 36" class="s3" d="m498.88 137.14h-37.5l35.4 0.42zm-37.5 0l35.4 0.42h-36.24z"/>
					<path id="Path 37" class="s3" d="m576.94 137.56h-36.24l37.2 0.6zm-36.24 0l37.2 0.6h-34.44z"/>
					<path id="Path 38" class="s3" d="m496.78 137.56h-36.24l33.42 0.6zm-36.24 0l33.42 0.6h-34.44z"/>
					<path id="Path 39" class="s3" d="m577.9 138.16h-34.44l36.6 1.32zm-34.44 0l36.6 1.32h-31.8z"/>
					<path id="Path 40" class="s3" d="m493.96 138.16h-34.44l29.64 1.32zm-34.44 0l29.64 1.32h-31.74z"/>
					<path id="Path 41" class="s3" d="m580.06 139.48h-31.8l33.18 0.78zm-31.8 0l33.18 0.78h-30.6z"/>
					<path id="Path 42" class="s3" d="m489.16 139.48h-31.74l29.16 0.78zm-31.74 0l29.16 0.78h-30.54z"/>
					<path id="Path 43" class="s3" d="m581.44 140.26h-30.6l31.62 0.72zm-30.6 0l31.62 0.72h-29.4z"/>
					<path id="Path 44" class="s3" d="m486.58 140.26h-30.54l28.38 0.72zm-30.54 0l28.38 0.72h-29.46z"/>
					<path id="Path 45" class="s3" d="m582.46 140.98h-29.4l32.04 1.68zm-29.4 0l32.04 1.68h-27.36z"/>
					<path id="Path 46" class="s3" d="m484.42 140.98h-29.46l24.72 1.68zm-29.46 0l24.72 1.68h-27.3z"/>
					<path id="Path 47" class="s3" d="m585.1 142.66h-27.36l28.02 0.48zm-27.36 0l28.02 0.48h-26.94z"/>
					<path id="Path 48" class="s3" d="m479.68 142.66h-27.3l26.22 0.48zm-27.3 0l26.22 0.48h-26.94z"/>
					<path id="Path 49" class="s3" d="m585.76 143.14h-26.94l28.98 1.5zm-26.94 0l28.98 1.5h-25.44z"/>
					<path id="Path 50" class="s3" d="m478.6 143.14h-26.94l23.46 1.5zm-26.94 0l23.46 1.5h-25.5z"/>
					<path id="Path 51" class="s3" d="m587.8 144.64h-25.44l27.66 1.56zm-25.44 0l27.66 1.56h-24.36z"/>
					<path id="Path 52" class="s3" d="m475.12 144.64h-25.5l22.14 1.56zm-25.5 0l22.14 1.56h-24.36z"/>
					<path id="Path 53" class="s3" d="m590.02 146.2h-24.36l25.08 0.6zm-24.36 0l25.08 0.6h-23.88z"/>
					<path id="Path 54" class="s3" d="m471.76 146.2h-24.36l23.22 0.6zm-24.36 0l23.22 0.6h-23.88z"/>
					<path id="Path 55" class="s3" d="m590.74 146.8h-23.88l26.82 2.34zm-23.88 0l26.82 2.34h-22.44z"/>
					<path id="Path 56" class="s3" d="m470.62 146.8h-23.88l19.44 2.34zm-23.88 0l19.44 2.34h-22.44z"/>
					<path id="Path 57" class="s3" d="m593.68 149.14h-22.44l22.86 0.36zm-22.44 0l22.86 0.36h-22.32z"/>
					<path id="Path 58" class="s3" d="m466.18 149.14h-22.44l21.9 0.36zm-22.44 0l21.9 0.36h-22.32z"/>
					<path id="Path 59" class="s3" d="m594.1 149.5h-22.32l24.9 2.22zm-22.32 0l24.9 2.22h-21.18z"/>
					<path id="Path 60" class="s3" d="m465.64 149.5h-22.32l18.6 2.22zm-22.32 0l18.6 2.22h-21.18z"/>
					<path id="Path 61" class="s3" d="m596.68 151.72h-21.18l22.56 1.2zm-21.18 0l22.56 1.2h-20.76z"/>
					<path id="Path 62" class="s3" d="m461.92 151.72h-21.18l19.38 1.2zm-21.18 0l19.38 1.2h-20.76z"/>
					<path id="Path 63" class="s3" d="m598.06 152.92h-20.76l22.44 1.56zm-20.76 0l22.44 1.56h-20.04z"/>
					<path id="Path 64" class="s3" d="m460.12 152.92h-20.76l18.42 1.56zm-20.76 0l18.42 1.56h-20.04z"/>
					<path id="Path 65" class="s3" d="m599.74 154.48h-20.04l22.2 2.04zm-20.04 0l22.2 2.04h-19.44z"/>
					<path id="Path 66" class="s3" d="m457.78 154.48h-20.04l17.28 2.04zm-20.04 0l17.28 2.04h-19.44z"/>
					<path id="Path 67" class="s3" d="m601.9 156.52h-19.44l20.28 0.9zm-19.44 0l20.28 0.9h-19.02z"/>
					<path id="Path 68" class="s3" d="m455.02 156.52h-19.44l18.18 0.9zm-19.44 0l18.18 0.9h-19.08z"/>
					<path id="Path 69" class="s3" d="m602.74 157.42h-19.02l21.78 2.88zm-19.02 0l21.78 2.88h-18.3z"/>
					<path id="Path 70" class="s3" d="m453.76 157.42h-19.08l15.54 2.88zm-19.08 0l15.54 2.88h-18.3z"/>
					<path id="Path 71" class="s3" d="m605.5 160.3h-18.3l18.54 0.3zm-18.3 0l18.54 0.3h-18.18z"/>
					<path id="Path 72" class="s3" d="m450.22 160.3h-18.3l17.94 0.3zm-18.3 0l17.94 0.3h-18.18z"/>
					<path id="Path 73" class="s3" d="m605.74 160.6h-18.18l21.12 3.3zm-18.18 0l21.12 3.3h-17.4z"/>
					<path id="Path 74" class="s3" d="m449.86 160.6h-18.18l14.46 3.3zm-18.18 0l14.46 3.3h-17.4z"/>
					<path id="Path 75" class="s3" d="m608.68 163.9h-17.4l17.7 0.3zm-17.4 0l17.7 0.3h-17.34z"/>
					<path id="Path 76" class="s3" d="m446.14 163.9h-17.4l17.1 0.3zm-17.4 0l17.1 0.3h-17.34z"/>
					<path id="Path 77" class="s3" d="m608.98 164.2h-17.34l19.86 3.18zm-17.34 0l19.86 3.18h-16.62z"/>
					<path id="Path 78" class="s3" d="m445.84 164.2h-17.34l14.1 3.18zm-17.34 0l14.1 3.18h-16.68z"/>
					<path id="Path 79" class="s3" d="m611.5 167.38h-16.62l17.4 0.9zm-16.62 0l17.4 0.9h-16.56z"/>
					<path id="Path 80" class="s3" d="m442.6 167.38h-16.68l15.84 0.9zm-16.68 0l15.84 0.9h-16.56z"/>
					<path id="Path 81" class="s3" d="m612.28 168.28h-16.56l18.54 2.76zm-16.56 0l18.54 2.76h-15.96z"/>
					<path id="Path 82" class="s3" d="m441.76 168.28h-16.56l13.98 2.76zm-16.56 0l13.98 2.76h-16.02z"/>
					<path id="Path 83" class="s3" d="m614.26 171.04h-15.96l17.04 1.44zm-15.96 0l17.04 1.44h-15.84z"/>
					<path id="Path 84" class="s3" d="m439.18 171.04h-16.02l14.76 1.44zm-16.02 0l14.76 1.44h-15.84z"/>
					<path id="Path 85" class="s3" d="m615.34 172.48h-15.84l17.4 2.4zm-15.84 0l17.4 2.4h-15.42z"/>
					<path id="Path 86" class="s3" d="m437.92 172.48h-15.84l13.86 2.4zm-15.84 0l13.86 2.4h-15.42z"/>
					<path id="Path 87" class="s3" d="m616.9 174.88h-15.42l16.8 1.98zm-15.42 0l16.8 1.98h-15.24z"/>
					<path id="Path 88" class="s3" d="m435.94 174.88h-15.42l13.86 1.98zm-15.42 0l13.86 1.98h-15.18z"/>
					<path id="Path 89" class="s3" d="m618.28 176.86h-15.24l16.38 1.98zm-15.24 0l16.38 1.98h-14.88z"/>
					<path id="Path 90" class="s3" d="m434.38 176.86h-15.18l13.68 1.98zm-15.18 0l13.68 1.98h-14.88z"/>
					<path id="Path 91" class="s3" d="m619.42 178.84h-14.88l16.44 2.52zm-14.88 0l16.44 2.52h-14.7z"/>
					<path id="Path 92" class="s3" d="m432.88 178.84h-14.88l13.14 2.52zm-14.88 0l13.14 2.52h-14.7z"/>
					<path id="Path 93" class="s3" d="m620.98 181.36h-14.7l15.54 1.56zm-14.7 0l15.54 1.56h-14.4z"/>
					<path id="Path 94" class="s3" d="m431.14 181.36h-14.7l13.62 1.56zm-14.7 0l13.62 1.56h-14.46z"/>
					<path id="Path 95" class="s3" d="m621.82 182.92h-14.4l16.08 3zm-14.4 0l16.08 3h-14.22z"/>
					<path id="Path 96" class="s3" d="m430.06 182.92h-14.46l12.54 3zm-14.46 0l12.54 3h-14.16z"/>
					<path id="Path 97" class="s3" d="m623.5 185.92h-14.22l14.82 1.2zm-14.22 0l14.82 1.2h-14.04z"/>
					<path id="Path 98" class="s3" d="m428.14 185.92h-14.16l13.44 1.2zm-14.16 0l13.44 1.2h-14.04z"/>
					<path id="Path 99" class="s3" d="m728.08 187.78l2.82 2.82h-5.64z"/>
					<path id="Path 100" class="s3" d="m747.76 187.78l2.76 2.82h-5.64z"/>
					<path id="Path 101" class="s3" d="m624.1 187.12h-14.04l15.72 3.48zm-14.04 0l15.72 3.48h-13.74z"/>
					<path id="Path 102" class="s3" d="m427.42 187.12h-14.04l12.06 3.48zm-14.04 0l12.06 3.48h-13.8z"/>
					<path id="Path 103" class="s3" d="m625.78 190.6h-13.74l14.1 0.9zm-13.74 0l14.1 0.9h-13.62z"/>
					<path id="Path 104" class="s3" d="m425.44 190.6h-13.8l13.32 0.9zm-13.8 0l13.32 0.9h-13.68z"/>
					<path id="Path 105" class="s3" d="m730.9 190.6h-5.64l3.42 2.22zm-5.64 0l3.42 2.22h-5.7z"/>
					<path id="Path 106" class="s3" d="m722.98 91.96h-5.34l5.34 100.86zm-5.34 0l5.34 100.86h-5.34z"/>
					<path id="Path 107" class="s3" d="m626.14 191.5h-13.62l15.36 3.9zm-13.62 0l15.36 3.9h-13.38z"/>
					<path id="Path 108" class="s3" d="m424.96 191.5h-13.68l11.7 3.9zm-13.68 0l11.7 3.9h-13.44z"/>
					<path id="Path 109" class="s3" d="m627.88 195.4h-13.38l13.56 0.54zm-13.38 0l13.56 0.54h-13.32z"/>
					<path id="Path 110" class="s3" d="m422.98 195.4h-13.44l13.14 0.54zm-13.44 0l13.14 0.54h-13.32z"/>
					<path id="Path 111" class="s3" d="m728.68 192.82h-11.04l5.7 5.34zm-11.04 0l5.7 5.34h-5.7z"/>
					<path id="Path 112" class="s3" d="m723.34 198.16h-5.7l5.34 0.3zm-5.7 0l5.34 0.3h-5.64z"/>
					<path id="Path 113" class="s3" d="m628.06 195.94h-13.32l15.06 4.38zm-13.32 0l15.06 4.38h-13.08z"/>
					<path id="Path 114" class="s3" d="m422.68 195.94h-13.32l11.4 4.38zm-13.32 0l11.4 4.38h-13.08z"/>
					<path id="Path 115" class="s3" d="m629.8 200.32h-13.08l13.14 0.18zm-13.08 0l13.14 0.18h-13.08z"/>
					<path id="Path 116" class="s3" d="m420.76 200.32h-13.08l12.96 0.18zm-13.08 0l12.96 0.18h-13.02z"/>
					<path id="Path 117" class="s3" d="m717.34 198.46l5.64 5.28h-10.98zm5.64 0h-5.64l5.64 5.28z"/>
					<path id="Path 118" class="s3" d="m722.98 203.74h-5.34l5.34 1.38zm-5.34 0l5.34 1.38h-5.34z"/>
					<path id="Path 119" class="s3" d="m717.64 203.74h-5.64l4.26 1.38zm-5.64 0l4.26 1.38h-5.64z"/>
					<path id="Path 120" class="s3" d="m629.86 200.5h-13.08l14.64 4.62zm-13.08 0l14.64 4.62h-12.78z"/>
					<path id="Path 121" class="s3" d="m420.64 200.5h-13.02l11.22 4.62zm-13.02 0l11.22 4.62h-12.78z"/>
					<path id="Path 122" class="s3" d="m631.42 205.12h-12.78l12.78 0.18zm-12.78 0l12.78 0.18h-12.78z"/>
					<path id="Path 123" class="s3" d="m418.84 205.12h-12.78l12.72 0.18zm-12.78 0l12.72 0.18h-12.78z"/>
					<path id="Path 124" class="s3" d="m631.42 205.3h-12.78l14.1 4.56zm-12.78 0l14.1 4.56h-12.54z"/>
					<path id="Path 125" class="s3" d="m418.78 205.3h-12.78l11.22 4.56zm-12.78 0l11.22 4.56h-12.54z"/>
					<path id="Path 126" class="s3" d="m632.74 209.86h-12.54l12.66 0.48zm-12.54 0l12.66 0.48h-12.54z"/>
					<path id="Path 127" class="s3" d="m417.22 209.86h-12.54l12.42 0.48zm-12.54 0l12.42 0.48h-12.54z"/>
					<path id="Path 128" class="s3" d="m750.52 190.6h-5.64l-16.2 21.72zm-5.64 0l-16.2 21.72h-5.7z"/>
					<path id="Path 129" class="s3" d="m722.98 205.12h-5.34l5.34 7.2zm-5.34 0l5.34 7.2h-5.34z"/>
					<path id="Path 130" class="s3" d="m632.86 210.34h-12.54l13.62 4.32zm-12.54 0l13.62 4.32h-12.36z"/>
					<path id="Path 131" class="s3" d="m417.1 210.34h-12.54l11.28 4.32zm-12.54 0l11.28 4.32h-12.3z"/>
					<path id="Path 132" class="s3" d="m633.94 214.66h-12.36l12.54 0.72zm-12.36 0l12.54 0.72h-12.36z"/>
					<path id="Path 133" class="s3" d="m415.84 214.66h-12.3l12.12 0.72zm-12.3 0l12.12 0.72h-12.3z"/>
					<path id="Path 134" class="s3" d="m728.68 212.32h-11.04l5.7 5.34zm-11.04 0l5.7 5.34h-5.7z"/>
					<path id="Path 135" class="s3" d="m723.34 217.66h-5.7l5.34 0.3zm-5.7 0l5.34 0.3h-5.64z"/>
					<path id="Path 136" class="s3" d="m717.34 217.96l5.64 0.42h-6.06zm5.64 0h-5.64l5.64 0.42z"/>
					<path id="Path 137" class="s3" d="m634.12 215.38h-12.36l13.14 4.14zm-12.36 0l13.14 4.14h-12.18z"/>
					<path id="Path 138" class="s3" d="m415.66 215.38h-12.3l11.34 4.14zm-12.3 0l11.34 4.14h-12.12z"/>
					<path id="Path 139" class="s3" d="m634.9 219.52h-12.18l12.36 1.02zm-12.18 0l12.36 1.02h-12.18z"/>
					<path id="Path 140" class="s3" d="m414.7 219.52h-12.12l11.94 1.02zm-12.12 0l11.94 1.02h-12.18z"/>
					<path id="Path 141" class="s3" d="m716.92 218.38l6.06 4.86h-10.98zm6.06 0h-6.06l6.06 4.86z"/>
					<path id="Path 142" class="s3" d="m722.98 223.24h-5.34l5.34 1.2zm-5.34 0l5.34 1.2h-5.34z"/>
					<path id="Path 143" class="s3" d="m717.64 223.24h-5.64l4.5 1.2zm-5.64 0l4.5 1.2h-5.64z"/>
					<path id="Path 144" class="s3" d="m635.08 220.54h-12.18l12.78 3.9zm-12.18 0l12.78 3.9h-12z"/>
					<path id="Path 145" class="s3" d="m414.52 220.54h-12.18l11.46 3.9zm-12.18 0l11.46 3.9h-12z"/>
					<path id="Path 146" class="s3" d="m716.5 224.44h-5.64l4.56 1.08zm-5.64 0l4.56 1.08h-5.64z"/>
					<path id="Path 147" class="s3" d="m716.26 205.12h-5.64l-14.82 20.4zm-5.64 0l-14.82 20.4h-5.64z"/>
					<path id="Path 148" class="s3" d="m690.34 225.7h5.22l-2.64 2.64z"/>
					<path id="Path 149" class="s3" d="m709.78 225.52l0.24 0.18h5.16zm0.24 0.18h5.16l-2.58 2.64z"/>
					<path id="Path 150" class="s3" d="m709.78 225.52h5.64l-0.24 0.18z"/>
					<path id="Path 151" class="s3" d="m695.8 225.52h-5.64l5.4 0.18zm-5.64 0l5.4 0.18h-5.22z"/>
					<path id="Path 152" class="s3" d="m635.68 224.44h-12l12.18 1.26zm-12 0l12.18 1.26h-12z"/>
					<path id="Path 153" class="s3" d="m413.8 224.44h-12l11.82 1.26zm-12 0l11.82 1.26h-12z"/>
					<path id="Path 154" class="s3" d="m635.86 225.7h-12l12.36 3.66zm-12 0l12.36 3.66h-11.88z"/>
					<path id="Path 155" class="s3" d="m413.62 225.7h-12l11.46 3.66zm-12 0l11.46 3.66h-11.82z"/>
					<path id="Path 156" class="s3" d="m636.22 229.36h-11.88l12 1.56zm-11.88 0l12 1.56h-11.82z"/>
					<path id="Path 157" class="s3" d="m413.08 229.36h-11.82l11.7 1.56zm-11.82 0l11.7 1.56h-11.88z"/>
					<path id="Path 158" class="s3" d="m636.34 230.92h-11.82l12.06 3.42zm-11.82 0l12.06 3.42h-11.76z"/>
					<path id="Path 159" class="s3" d="m412.96 230.92h-11.88l11.58 3.42zm-11.88 0l11.58 3.42h-11.76z"/>
					<path id="Path 160" class="s3" d="m636.58 234.34h-11.76l11.82 1.8zm-11.76 0l11.82 1.8h-11.76z"/>
					<path id="Path 161" class="s3" d="m412.66 234.34h-11.76l11.64 1.8zm-11.76 0l11.64 1.8h-11.76z"/>
					<path id="Path 162" class="s3" d="m636.64 236.14h-11.76l11.82 3.18zm-11.76 0l11.82 3.18h-11.7z"/>
					<path id="Path 163" class="s3" d="m412.54 236.14h-11.76l11.64 3.18zm-11.76 0l11.64 3.18h-11.7z"/>
					<path id="Path 164" class="s3" d="m636.7 239.32h-11.7l11.76 2.1zm-11.7 0l11.76 2.1h-11.76z"/>
					<path id="Path 165" class="s3" d="m412.42 239.32h-11.7l11.7 2.1zm-11.7 0l11.7 2.1h-11.7z"/>
					<path id="Path 166" class="s3" d="m636.76 241.42h-11.76l11.64 2.94zm-11.76 0l11.64 2.94h-11.64z"/>
					<path id="Path 167" class="s3" d="m412.42 241.42h-11.7l11.7 2.94zm-11.7 0l11.7 2.94h-11.64z"/>
					<path id="Path 168" class="s3" d="m636.64 244.36h-11.64l11.58 2.28zm-11.64 0l11.58 2.28h-11.7z"/>
					<path id="Path 169" class="s3" d="m412.42 244.36h-11.64l11.76 2.28zm-11.64 0l11.76 2.28h-11.64z"/>
					<path id="Path 170" class="s3" d="m636.58 246.64h-11.7l11.46 2.7zm-11.7 0l11.46 2.7h-11.58z"/>
					<path id="Path 171" class="s3" d="m412.54 246.64h-11.64l11.76 2.7zm-11.64 0l11.76 2.7h-11.58z"/>
					<path id="Path 172" class="s3" d="m636.34 249.34h-11.58l11.4 2.52zm-11.58 0l11.4 2.52h-11.64z"/>
					<path id="Path 173" class="s3" d="m412.66 249.34h-11.58l11.82 2.52zm-11.58 0l11.82 2.52h-11.64z"/>
					<path id="Path 174" class="s3" d="m636.16 251.86h-11.64l11.34 2.46zm-11.64 0l11.34 2.46h-11.58z"/>
					<path id="Path 175" class="s3" d="m412.9 251.86h-11.64l11.88 2.46zm-11.64 0l11.88 2.46h-11.58z"/>
					<path id="Path 176" class="s3" d="m635.86 254.32h-234.3l234 2.7zm-234.3 0l234 2.7h-233.64z"/>
					<path id="Path 177" class="s3" d="m635.56 257.02h-233.64l232.74 5.16zm-233.64 0l232.74 5.16h-231.9z"/>
					<path id="Path 178" class="s3" d="m634.66 262.18h-231.9l230.82 5.16zm-231.9 0l230.82 5.16h-229.74z"/>
					<path id="Path 179" class="s3" d="m658.96 306.52l2.04 2.1h-4.14z"/>
					<path id="Path 180" class="s3" d="m678.58 306.52l2.1 2.1h-4.2z"/>
					<path id="Path 181" class="s3" d="m525.22 267.34h-13.02l13.02 41.28zm-13.02 0l13.02 41.28h-13.02z"/>
					<path id="Path 182" class="s3" d="m676.48 308.62l4.92 0.72h-5.64zm4.2 0h-4.2l4.92 0.72z"/>
					<path id="Path 183" class="s3" d="m656.86 308.62l4.86 0.72h-5.64zm4.14 0h-4.14l4.86 0.72z"/>
					<path id="Path 184" class="s3" d="m584.68 308.62h-72.48l72.48 13.02zm-72.48 0l72.48 13.02h-72.48z"/>
					<path id="Path 185" class="s3" d="m722.98 224.44h-5.34l5.34 99.66zm-5.34 0l5.34 99.66h-5.34z"/>
					<path id="Path 186" class="s3" d="m681.4 309.34h-5.64l-9.24 14.76zm-5.64 0l-9.24 14.76h-5.64z"/>
					<path id="Path 187" class="s3" d="m661.72 309.34h-5.64l-9.18 14.76zm-5.64 0l-9.18 14.76h-5.7z"/>
					<path id="Path 188" class="s3" d="m584.68 321.64h-13.02l13.02 2.46zm-13.02 0l13.02 2.46h-13.02z"/>
					<path id="Path 189" class="s3" d="m584.68 324.1l138.3 5.4h-138.3zm138.3 0h-138.3l138.3 5.4z"/>
					<path id="Path 190" class="s3" d="m584.68 324.1h-13.02l13.02 5.4zm-13.02 0l13.02 5.4h-13.02z"/>
					<path id="Path 191" class="s3" d="m620.98 344.26h5.64l-2.82 2.82z"/>
					<path id="Path 192" class="s3" d="m655.48 329.5l-14.88 14.76h5.7zm-14.88 14.76h5.7l-2.88 2.82z"/>
					<path id="Path 193" class="s3" d="m655.48 329.5h5.64l-14.82 14.76z"/>
					<path id="Path 194" class="s3" d="m641.5 329.5h-5.64l-9.24 14.76zm-5.64 0l-9.24 14.76h-5.64z"/>
					<path id="Path 195" class="s3" d="m584.68 329.5h-13.02l13.02 42.84zm-13.02 0l13.02 42.84h-13.02z"/>
					<path id="Path 196" class="s3" d="m525.22 321.64h-13.02l13.02 50.7zm-13.02 0l13.02 50.7h-13.02z"/>
					<path id="Path 197" class="s3" d="m584.68 372.34h-72.48l72.48 13.02zm-72.48 0l72.48 13.02h-72.48z"/>
					<path id="Path 198" class="s3" d="m639.88 407.08v0.18h-0.18z"/>
					<path id="Path 199" class="s3" d="m397.54 407.26l36.42 24.48h-36.42z"/>
					<path id="Path 200" class="s3" d="m639.7 407.26l0.18 24.48h-36.54zm0.18 0h-0.18l0.18 24.48z"/>
					<path id="Path 201" class="s3" d="m626.86 431.74h-23.52l-54.72 52.62zm-23.52 0l-54.72 52.62h-23.4z"/>
					<path id="Path 202" class="s3" d="m525.22 385.36h-13.02l13.02 99zm-13.02 0l13.02 99h-13.02z"/>
					<path id="Path 203" fill-rule="evenodd" class="s4" d="m512.2 484.36h36.42zm36.42 0h-36.42z"/>
					<path id="Path 204" class="s3" d="m433.96 431.74h-23.34l101.58 52.62zm-23.34 0l101.58 52.62h-23.34z"/>
					<path id="Path 205" class="s3" d="m548.62 484.36h-59.76l41.52 12.3zm-59.76 0l41.52 12.3h-23.28z"/>
					<path id="Path 206" class="s3" d="m507.1 496.66l34.8 7.86h-46.38zm23.28 0h-23.28l34.8 7.86z"/>
					<path id="Path 207" class="s3" d="m603.76 562.18h36.12v24.48z"/>
					<path id="Path 208" class="s3" d="m639.88 431.74h-13.02l13.02 130.44zm-13.02 0l13.02 130.44h-13.02z"/>
					<path id="Path 209" class="s3" d="m541.9 504.52h-23.16l108.12 57.66zm-23.16 0l108.12 57.66h-23.1z"/>
					<path id="Path 210" class="s3" d="m518.74 504.52h-23.22l-61.74 57.66zm-23.22 0l-61.74 57.66h-23.16z"/>
					<path id="Path 211" class="s3" d="m410.62 431.74h-13.08l13.08 130.44zm-13.08 0l13.08 130.44h-13.08z"/>
					<path id="Path 212" class="s3" d="m397.54 562.18v24.48h0.24zm0 24.48h0.24l-0.24 0.12z"/>
					<path id="Path 213" class="s3" d="m397.54 562.18h36.24l-36 24.48z"/>
					<path id="Path 214" class="s5" d="m633.61 267.33c8.14-34.54 0.31-70.91-21.33-99.03-21.64-28.12-54.78-45.02-90.25-45.99m-6.52 0c-35.47 0.97-68.61 17.87-90.25 45.99-21.64 28.12-29.47 64.49-21.33 99.03m220.43-13.06c4.9-40.75-14.08-80.68-48.78-102.61-34.7-21.92-78.92-21.92-113.62 0-34.7 21.93-53.68 61.86-48.78 102.61m105.56 250.25l-121.2 82.26m109.56-90.12l-96.48 65.52m0 0v-130.44m-13.08 155.04v-179.52m0 0l114.66 77.1m-101.58-52.62l96.48 64.92m23.28 0l96.48 65.52m-108.12-57.66l121.14 82.14m-13.02-24.48v-130.44m13.02 154.92v-179.58m-13.02 24.66l-96.48 64.92m109.5-89.58l-114.66 77.28m0-217.02v41.28m0 76.74v99m-13.02-217.02v217.02m-99.06-230.04h211.14m-220.44 13.02h108.36m13.02 0h108.36m-108.36 41.28h59.46v15.48m-59.46-2.46h46.44m13.02 7.86v55.86m-13.02-63.72v50.7m13.02 13.02h-59.46m46.44-13.02h-46.44m59.46-42.84h51.18m5.64 0h13.98m5.64 0h2.16m0 0h59.7m-138.3-5.4h56.52m5.7 0h13.98m5.64 0h3.42m53.04 5.4v-111.12m0 0v-0.42m0-5.64v-13.86m0-5.64v-106.2m-5.34 237.48v-101.4m0-5.04v-13.92m0-5.58v-106.2m0 0h-82.68m0 0h-2.1m-5.7 0h-13.98m-5.64 0h-86.16m201.6-5.34h-81.42m0 0h-3.36m-5.64 0h-13.98m-5.64 0h-96.9m84 281.28v3.24"/>
					<path id="Path 215" class="s6" d="m763.66 367.9h-29.4l29.4 3.24zm-29.4 0l29.4 3.24h-29.4z"/>
					<path id="Path 216" class="s6" d="m718.96 367.9h-29.46l29.46 3.24zm-29.46 0l29.46 3.24h-29.46z"/>
					<path id="Path 217" class="s6" d="m674.2 367.9h-29.46l29.46 3.24zm-29.46 0l29.46 3.24h-29.46z"/>
					<path id="Path 218" class="s6" d="m629.44 367.9h-29.4l29.4 3.24zm-29.4 0l29.4 3.24h-29.4z"/>
					<path id="Path 219" class="s5" d="m629.44 371.14v-3.24m-108.06-245.64v-30.3m78.66 275.94v3.24m0 0h29.4m15.3 0h29.46m15.3 0h29.46m15.3 0h29.4m-238.44-49.5h46.44m-46.44 50.7v-50.7m-9.78-199.38h0.6m5.34 0h0.6m-5.94 0v-35.64m84 281.28h29.4m15.3 0h29.46m15.3 0h29.46m15.3 0h29.4m-118.92 0v3.24m29.46-3.24v3.24m15.3-3.24v3.24m29.46-3.24v3.24m15.3-3.24v3.24m29.4-3.24v3.24m-93.72-47.04h47.7m-132.96 0v5.4m6.54-221.34l16.32-16.2m5.4-5.34l16.26-16.2m0 0l2.82 2.88m-37.98 37.68l19.14-19.02m5.4-5.34l13.44-13.32m-40.8 34.86l2.82 2.82m16.86-2.82l16.26-16.2m5.4-5.34l16.32-16.2m0 0l2.76 2.88m-37.98 37.68l19.2-19.02m5.34-5.34l13.44-13.32m-40.74 34.86l2.76 2.82m76.5 114.54l27.48-27.36m5.34-5.34l5.1-5.04m-35.16 40.56l24.72-24.6m5.34 8.58l24.78-24.54m-57.6 37.74l2.76 2.82m16.86-2.82l7.86-7.86m5.34 0.3l27.54-27.36m-37.92 37.74l5.04-5.1m5.34-24.78l7.92-7.86m-21.12 34.92l2.82 2.82m15.48-40.56l2.82 2.82m16.86-2.82l2.76 2.82m-129.54 153.66l14.88-14.76m5.34-5.4l17.76-17.58m-35.16 40.56l17.7-17.58m5.4-5.4l14.82-14.76m-40.74 34.92l2.82 2.82m16.8-2.82l14.88-14.76m5.4-5.4l17.7-17.58m-35.16 40.56l17.7-17.58m5.4-5.4l14.88-14.76m-40.8 34.92l2.82 2.82m15.54-40.56l2.76 2.82m16.86-2.82l2.82 2.82"/>
				</g>
			</g>
		</g>
	</g>
</svg>