<svg version="1.2" xmlns="http://www.w3.org/2000/svg" viewBox="0 0 692 1334" width="692" height="1334">
	<title>LOGO</title>
	<defs>
		<clipPath clipPathUnits="userSpaceOnUse" id="cp1">
			<path d="m-288-174h1190v1684h-1190z"/>
		</clipPath>
		<clipPath clipPathUnits="userSpaceOnUse" id="cp2">
			<path d="m-153.38 1414h920.52v-1491h-920.52z"/>
		</clipPath>
	</defs>
	<style>
		tspan { white-space:pre } 
		.t0 { font-size: 657px;fill: #ff6600;font-weight: bold;font-family: "Arial" } 
		.t1 { font-size: 657px;fill: #808080;font-weight: bold;font-family: "Arial" } 
		.s2 { fill: #ff6600;stroke: #ff6600;stroke-miterlimit:10;stroke-width: .4 } 
		.s3 { fill: #808080;stroke: #808080;stroke-miterlimit:10;stroke-width: .4 } 
		.s4 { fill: none;stroke: #808080;stroke-miterlimit:10;stroke-width: .4 } 
		.s5 { fill: none;stroke: #808080;stroke-linecap: round;stroke-linejoin: round;stroke-width: .4 } 
		.s6 { fill: #808080;stroke: #808080;stroke-linecap: round;stroke-miterlimit:10;stroke-width: .4 } 
	</style>
	<g id="Page 1" clip-path="url(#cp1)">
		<g id="Mask" clip-path="url(#cp2)">
			<text id="P" style="transform: matrix(0,1,-1,0,201.64,-9.68)" >
				<tspan x="0" y="0" class="t0">P
</tspan>
			</text>
			<text id="A" style="transform: matrix(0,1,-1,0,201.04,847.9)" >
				<tspan x="0" y="0" class="t1">A
</tspan>
			</text>
			<path id="Path 6" class="s2" d="m167.44 733.3l-31.5 580.92v-580.92zm0 580.92v-580.92l-31.5 580.92z"/>
			<path id="Path 7" class="s2" d="m167.44 42.16l-31.5 398.34v-398.34zm0 398.34v-398.34l-31.5 398.34z"/>
			<path id="Path 8" class="s3" d="m667.18 720.4l-3.42 3.42v-6.84z"/>
			<path id="Path 9" class="s3" d="m667.18 744.16l-3.42 3.36v-6.84z"/>
			<path id="Path 10" class="s3" d="m663.76 747.52v-6.84l-16.14-9.36zm0-6.84l-16.14-9.36v-6.84z"/>
			<path id="Path 11" class="s3" d="m663.76 723.82v-6.84l-16.14-9.42zm0-6.84l-16.14-9.42v-6.84z"/>
			<path id="Path 12" class="s3" d="m647.62 583.66l-6.48 250.08v-250.08zm0 250.08v-250.08l-6.48 250.08z"/>
			<path id="Path 13" class="s3" d="m621.58 674.56v6.78l-3.42-3.42z"/>
			<path id="Path 14" class="s3" d="m641.14 717.94l-19.56-19.68v6.84zm-19.56-19.68v6.84l-3.42-3.42z"/>
			<path id="Path 15" class="s3" d="m641.14 717.94v6.84l-19.56-19.68z"/>
			<path id="Path 16" class="s3" d="m641.14 701.08v-6.84l-19.56-12.9zm0-6.84l-19.56-12.9v-6.78z"/>
			<path id="Path 17" class="s3" d="m641.14 583.66l-36.6 6.48v-6.48zm0 6.48v-6.48l-36.6 6.48z"/>
			<path id="Path 18" class="s3" d="m604.54 582.94l-0.3 13.62v-19.32zm0 7.92v-7.92l-0.3 13.62z"/>
			<path id="Path 19" class="s3" d="m604.24 577.24l-0.48 25.08v-30.84zm0 19.32v-19.32l-0.48 25.08z"/>
			<path id="Path 20" class="s3" d="m603.76 571.48l-0.72 36.54v-42.24zm0 30.84v-30.84l-0.72 36.54z"/>
			<path id="Path 21" class="s3" d="m603.04 565.78l-0.96 47.88v-53.52zm0 42.24v-42.24l-0.96 47.88z"/>
			<path id="Path 22" class="s3" d="m602.08 560.14l-1.2 59.16v-64.8zm0 53.52v-53.52l-1.2 59.16z"/>
			<path id="Path 23" class="s3" d="m600.88 554.5l-1.44 70.38v-75.96zm0 64.8v-64.8l-1.44 70.38z"/>
			<path id="Path 24" class="s3" d="m599.44 548.92l-1.62 81.48v-87zm0 75.96v-75.96l-1.62 81.48z"/>
			<path id="Path 25" class="s3" d="m597.82 543.4l-1.92 92.46v-97.92zm0 87v-87l-1.92 92.46z"/>
			<path id="Path 26" class="s3" d="m595.9 537.94l-2.04 103.26v-108.6zm0 97.92v-97.92l-2.04 103.26z"/>
			<path id="Path 27" class="s3" d="m593.86 532.6l-2.34 113.88v-119.16zm0 108.6v-108.6l-2.34 113.88z"/>
			<path id="Path 28" class="s3" d="m591.52 527.32l-2.46 124.32v-129.48zm0 119.16v-119.16l-2.46 124.32z"/>
			<path id="Path 29" class="s3" d="m589.06 522.16l-0.24 129.9v-130.32zm0 129.48v-129.48l-0.24 129.9z"/>
			<path id="Path 30" class="s3" d="m588.82 589.66l-0.24 62.82v-57.36zm0 62.4v-62.4l-0.24 62.82z"/>
			<path id="Path 31" class="s3" d="m588.82 584.14v-62.4l-0.24 56.94zm0-62.4l-0.24 56.94v-57.36z"/>
			<path id="Path 32" class="s3" d="m588.58 595.12l-0.48 58.26v-52.74zm0 57.36v-57.36l-0.48 58.26z"/>
			<path id="Path 33" class="s3" d="m588.58 578.68v-57.36l-0.48 51.84zm0-57.36l-0.48 51.84v-52.74z"/>
			<path id="Path 34" class="s3" d="m588.1 600.64l-0.66 54.06v-48.6zm0 52.74v-52.74l-0.66 54.06z"/>
			<path id="Path 35" class="s3" d="m588.1 573.16v-52.74l-0.66 47.28zm0-52.74l-0.66 47.28v-48.6z"/>
			<path id="Path 36" class="s3" d="m587.44 606.1l-0.96 50.34v-44.94zm0 48.6v-48.6l-0.96 50.34z"/>
			<path id="Path 37" class="s3" d="m587.44 567.7v-48.6l-0.96 43.2zm0-48.6l-0.96 43.2v-44.94z"/>
			<path id="Path 38" class="s3" d="m586.48 611.5l-0.18 45.24v-44.58zm0 44.94v-44.94l-0.18 45.24z"/>
			<path id="Path 39" class="s3" d="m586.48 562.3v-44.94l-0.18 44.28zm0-44.94l-0.18 44.28v-44.58z"/>
			<path id="Path 40" class="s3" d="m586.3 612.16l-1.02 46.32v-41.64zm0 44.58v-44.58l-1.02 46.32z"/>
			<path id="Path 41" class="s3" d="m586.3 561.64v-44.58l-1.02 39.9zm0-44.58l-1.02 39.9v-41.64z"/>
			<path id="Path 42" class="s3" d="m585.28 616.84l-1.38 43.98v-38.64zm0 41.64v-41.64l-1.38 43.98z"/>
			<path id="Path 43" class="s3" d="m585.28 556.96v-41.64l-1.38 36.3zm0-41.64l-1.38 36.3v-38.64z"/>
			<path id="Path 44" class="s3" d="m583.9 622.18l-0.48 39.48v-37.86zm0 38.64v-38.64l-0.48 39.48z"/>
			<path id="Path 45" class="s3" d="m583.9 551.62v-38.64l-0.48 37.02zm0-38.64l-0.48 37.02v-37.86z"/>
			<path id="Path 46" class="s3" d="m583.42 623.8l-1.14 39.6v-35.94zm0 37.86v-37.86l-1.14 39.6z"/>
			<path id="Path 47" class="s3" d="m583.42 550v-37.86l-1.14 34.2zm0-37.86l-1.14 34.2v-35.94z"/>
			<path id="Path 48" class="s3" d="m582.28 627.46l-1.86 38.82v-33.66zm0 35.94v-35.94l-1.86 38.82z"/>
			<path id="Path 49" class="s3" d="m582.28 546.34v-35.94l-1.86 30.78zm0-35.94l-1.86 30.78v-33.66z"/>
			<path id="Path 50" class="s3" d="m580.42 632.62l-0.12 33.9v-33.54zm0 33.66v-33.66l-0.12 33.9z"/>
			<path id="Path 51" class="s3" d="m580.42 541.18v-33.66l-0.12 33.3zm0-33.66l-0.12 33.3v-33.54z"/>
			<path id="Path 52" class="s3" d="m580.3 632.98l-1.92 36.24v-31.5zm0 33.54v-33.54l-1.92 36.24z"/>
			<path id="Path 53" class="s3" d="m580.3 540.82v-33.54l-1.92 28.8zm0-33.54l-1.92 28.8v-31.5z"/>
			<path id="Path 54" class="s3" d="m578.38 637.72l-1.38 33.48v-30.42zm0 31.5v-31.5l-1.38 33.48z"/>
			<path id="Path 55" class="s3" d="m578.38 536.08v-31.5l-1.38 28.44zm0-31.5l-1.38 28.44v-30.42z"/>
			<path id="Path 56" class="s3" d="m577 640.78l-0.9 31.62v-29.7zm0 30.42v-30.42l-0.9 31.62z"/>
			<path id="Path 57" class="s3" d="m577 533.02v-30.42l-0.9 28.5zm0-30.42l-0.9 28.5v-29.7z"/>
			<path id="Path 58" class="s3" d="m576.1 642.7l-2.52 32.94v-28.02zm0 29.7v-29.7l-2.52 32.94z"/>
			<path id="Path 59" class="s3" d="m576.1 531.1v-29.7l-2.52 24.78zm0-29.7l-2.52 24.78v-28.02z"/>
			<path id="Path 60" class="s3" d="m573.58 647.62l-0.06 28.2v-28.02zm0 28.02v-28.02l-0.06 28.2z"/>
			<path id="Path 61" class="s3" d="m573.58 526.18v-28.02l-0.06 27.84zm0-28.02l-0.06 27.84v-28.02z"/>
			<path id="Path 62" class="s3" d="m573.52 647.8l-2.64 31.14v-26.52zm0 28.02v-28.02l-2.64 31.14z"/>
			<path id="Path 63" class="s3" d="m573.52 526v-28.02l-2.64 23.4zm0-28.02l-2.64 23.4v-26.52z"/>
			<path id="Path 64" class="s3" d="m570.88 652.42l-1.08 27.78v-26.04zm0 26.52v-26.52l-1.08 27.78z"/>
			<path id="Path 65" class="s3" d="m570.88 521.38v-26.52l-1.08 24.78zm0-26.52l-1.08 24.78v-26.04z"/>
			<path id="Path 66" class="s3" d="m569.8 654.16l-1.8 28.08v-25.14zm0 26.04v-26.04l-1.8 28.08z"/>
			<path id="Path 67" class="s3" d="m569.8 519.64v-26.04l-1.8 23.1zm0-26.04l-1.8 23.1v-25.14z"/>
			<path id="Path 68" class="s3" d="m568 657.1l-2.04 27.36v-24.42zm0 25.14v-25.14l-2.04 27.36z"/>
			<path id="Path 69" class="s3" d="m568 516.7v-25.14l-2.04 22.2zm0-25.14l-2.04 22.2v-24.42z"/>
			<path id="Path 70" class="s3" d="m565.96 660.04l-1.08 25.56v-24zm0 24.42v-24.42l-1.08 25.56z"/>
			<path id="Path 71" class="s3" d="m565.96 513.76v-24.42l-1.08 22.86zm0-24.42l-1.08 22.86v-24z"/>
			<path id="Path 72" class="s3" d="m564.88 661.6l-2.94 27v-23.04zm0 24v-24l-2.94 27z"/>
			<path id="Path 73" class="s3" d="m564.88 512.2v-24l-2.94 20.04zm0-24l-2.94 20.04v-23.04z"/>
			<path id="Path 74" class="s3" d="m561.94 665.56l-0.36 23.4v-22.92zm0 23.04v-23.04l-0.36 23.4z"/>
			<path id="Path 75" class="s3" d="m561.94 508.24v-23.04l-0.36 22.56zm0-23.04l-0.36 22.56v-22.92z"/>
			<path id="Path 76" class="s3" d="m561.58 666.04l-3.48 26.16v-21.9zm0 22.92v-22.92l-3.48 26.16z"/>
			<path id="Path 77" class="s3" d="m561.58 507.76v-22.92l-3.48 18.66zm0-22.92l-3.48 18.66v-21.9z"/>
			<path id="Path 78" class="s3" d="m558.1 670.3l-0.36 22.26v-21.9zm0 21.9v-21.9l-0.36 22.26z"/>
			<path id="Path 79" class="s3" d="m558.1 503.5v-21.9l-0.36 21.54zm0-21.9l-0.36 21.54v-21.9z"/>
			<path id="Path 80" class="s3" d="m557.74 670.66l-3.3 24.78v-21.06zm0 21.9v-21.9l-3.3 24.78z"/>
			<path id="Path 81" class="s3" d="m557.74 503.14v-21.9l-3.3 18.18zm0-21.9l-3.3 18.18v-21.06z"/>
			<path id="Path 82" class="s3" d="m554.44 674.38l-1.02 21.96v-20.88zm0 21.06v-21.06l-1.02 21.96z"/>
			<path id="Path 83" class="s3" d="m554.44 499.42v-21.06l-1.02 19.98zm0-21.06l-1.02 19.98v-20.88z"/>
			<path id="Path 84" class="s3" d="m553.42 675.46l-2.76 23.1v-20.22zm0 20.88v-20.88l-2.76 23.1z"/>
			<path id="Path 85" class="s3" d="m553.42 498.34v-20.88l-2.76 18zm0-20.88l-2.76 18v-20.22z"/>
			<path id="Path 86" class="s3" d="m550.66 678.34l-1.74 21.6v-19.98zm0 20.22v-20.22l-1.74 21.6z"/>
			<path id="Path 87" class="s3" d="m550.66 495.46v-20.22l-1.74 18.6zm0-20.22l-1.74 18.6v-19.98z"/>
			<path id="Path 88" class="s3" d="m548.92 679.96l-2.28 21.66v-19.5zm0 19.98v-19.98l-2.28 21.66z"/>
			<path id="Path 89" class="s3" d="m548.92 493.84v-19.98l-2.28 17.82zm0-19.98l-2.28 17.82v-19.5z"/>
			<path id="Path 90" class="s3" d="m546.64 682.12l-2.34 21.24v-19.2zm0 19.5v-19.5l-2.34 21.24z"/>
			<path id="Path 91" class="s3" d="m546.64 491.68v-19.5l-2.34 17.46zm0-19.5l-2.34 17.46v-19.2z"/>
			<path id="Path 92" class="s3" d="m544.3 684.16l-1.8 20.4v-18.84zm0 19.2v-19.2l-1.8 20.4z"/>
			<path id="Path 93" class="s3" d="m544.3 489.64v-19.2l-1.8 17.64zm0-19.2l-1.8 17.64v-18.84z"/>
			<path id="Path 94" class="s3" d="m542.5 685.72l-2.94 20.82v-18.48zm0 18.84v-18.84l-2.94 20.82z"/>
			<path id="Path 95" class="s3" d="m542.5 488.08v-18.84l-2.94 16.5zm0-18.84l-2.94 16.5v-18.48z"/>
			<path id="Path 96" class="s3" d="m539.56 688.06l-1.38 19.38v-18.3zm0 18.48v-18.48l-1.38 19.38z"/>
			<path id="Path 97" class="s3" d="m539.56 485.74v-18.48l-1.38 17.4zm0-18.48l-1.38 17.4v-18.3z"/>
			<path id="Path 98" class="s3" d="m538.18 689.14l-3.54 20.46v-17.88zm0 18.3v-18.3l-3.54 20.46z"/>
			<path id="Path 99" class="s3" d="m538.18 484.66v-18.3l-3.54 15.72zm0-18.3l-3.54 15.72v-17.88z"/>
			<path id="Path 100" class="s3" d="m534.64 691.72l-0.9 18.42v-17.76zm0 17.88v-17.88l-0.9 18.42z"/>
			<path id="Path 101" class="s3" d="m534.64 482.08v-17.88l-0.9 17.22zm0-17.88l-0.9 17.22v-17.76z"/>
			<path id="Path 102" class="s3" d="m533.74 692.38l-4.08 20.04v-17.34zm0 17.76v-17.76l-4.08 20.04z"/>
			<path id="Path 103" class="s3" d="m533.74 481.42v-17.76l-4.08 15.06zm0-17.76l-4.08 15.06v-17.34z"/>
			<path id="Path 104" class="s3" d="m529.66 695.08l-0.48 17.58v-17.22zm0 17.34v-17.34l-0.48 17.58z"/>
			<path id="Path 105" class="s3" d="m529.66 478.72v-17.34l-0.48 16.98zm0-17.34l-0.48 16.98v-17.22z"/>
			<path id="Path 106" class="s3" d="m525.4 839.92l-0.84 0.84v-1.68z"/>
			<path id="Path 107" class="s3" d="m525.4 863.68l-0.84 0.84v-1.74z"/>
			<path id="Path 108" class="s3" d="m529.18 695.44l-4.62 19.62v-16.86zm0 17.22v-17.22l-4.62 19.62z"/>
			<path id="Path 109" class="s3" d="m529.18 478.36v-17.22l-4.62 14.46zm0-17.22l-4.62 14.46v-16.86z"/>
			<path id="Path 110" class="s3" d="m524.56 698.2l-0.12 16.92v-16.86zm0 16.86v-16.86l-0.12 16.92z"/>
			<path id="Path 111" class="s3" d="m524.56 475.6v-16.86l-0.12 16.8zm0-16.86l-0.12 16.8v-16.86z"/>
			<path id="Path 112" class="s3" d="m524.56 862.78l-2.58 4.26v-6.84zm0 1.74v-1.74l-2.58 4.26z"/>
			<path id="Path 113" class="s3" d="m524.56 839.08l-2.58 4.2v-6.84zm0 1.68v-1.68l-2.58 4.2z"/>
			<path id="Path 114" class="s3" d="m524.44 698.26l-4.8 19.08v-16.44zm0 16.86v-16.86l-4.8 19.08z"/>
			<path id="Path 115" class="s3" d="m524.44 475.54v-16.86l-4.8 14.22zm0-16.86l-4.8 14.22v-16.44z"/>
			<path id="Path 116" class="s3" d="m519.64 700.9l-0.3 16.56v-16.38zm0 16.44v-16.44l-0.3 16.56z"/>
			<path id="Path 117" class="s3" d="m519.64 472.9v-16.44l-0.3 16.26zm0-16.44l-0.3 16.26v-16.38z"/>
			<path id="Path 118" class="s3" d="m521.98 843.28v-6.84l-2.7 4.14zm0-6.84l-2.7 4.14v-6.84z"/>
			<path id="Path 119" class="s3" d="m641.14 827.32l-121.86 6.42v-6.42zm0 6.42v-6.42l-121.86 6.42z"/>
			<path id="Path 120" class="s3" d="m519.34 701.08l-4.62 18.3v-16.02zm0 16.38v-16.38l-4.62 18.3z"/>
			<path id="Path 121" class="s3" d="m519.34 472.72v-16.38l-4.62 14.1zm0-16.38l-4.62 14.1v-16.02z"/>
			<path id="Path 122" class="s3" d="m514.72 703.36l-0.72 16.32v-16.02zm0 16.02v-16.02l-0.72 16.32z"/>
			<path id="Path 123" class="s3" d="m514.72 470.44v-16.02l-0.72 15.72zm0-16.02l-0.72 15.72v-16.02z"/>
			<path id="Path 124" class="s3" d="m519.28 840.58v-13.26l-6.42 6.84zm0-13.26l-6.42 6.84v-6.84z"/>
			<path id="Path 125" class="s3" d="m512.86 834.16v-6.84l-0.36 6.42zm0-6.84l-0.36 6.42v-6.78z"/>
			<path id="Path 126" class="s3" d="m514 703.66l-4.32 17.64v-15.72zm0 16.02v-16.02l-4.32 17.64z"/>
			<path id="Path 127" class="s3" d="m514 470.14v-16.02l-4.32 14.1zm0-16.02l-4.32 14.1v-15.72z"/>
			<path id="Path 128" class="s3" d="m509.68 705.58l-1.08 16.08v-15.72zm0 15.72v-15.72l-1.08 16.08z"/>
			<path id="Path 129" class="s3" d="m509.68 468.22v-15.72l-1.08 15.36zm0-15.72l-1.08 15.36v-15.72z"/>
			<path id="Path 130" class="s3" d="m512.5 826.96l-6.42 6.78v-13.26zm0 6.78v-6.78l-6.42 6.78z"/>
			<path id="Path 131" class="s3" d="m506.08 827.32l-1.56 6.42v-6.42zm0 6.42v-6.42l-1.56 6.42z"/>
			<path id="Path 132" class="s3" d="m506.08 827.32v-6.84l-1.56 5.28zm0-6.84l-1.56 5.28v-6.84z"/>
			<path id="Path 133" class="s3" d="m508.6 705.94l-4.08 17.04v-15.42zm0 15.72v-15.72l-4.08 17.04z"/>
			<path id="Path 134" class="s3" d="m508.6 467.86v-15.72l-4.08 14.1zm0-15.72l-4.08 14.1v-15.42z"/>
			<path id="Path 135" class="s3" d="m504.52 707.56l-1.38 15.9v-15.42zm0 15.42v-15.42l-1.38 15.9z"/>
			<path id="Path 136" class="s3" d="m504.52 466.24v-15.42l-1.38 14.94zm0-15.42l-1.38 14.94v-15.42z"/>
			<path id="Path 137" class="s3" d="m503.14 708.04l-3.78 16.44v-15.12zm0 15.42v-15.42l-3.78 16.44z"/>
			<path id="Path 138" class="s3" d="m503.14 465.76v-15.42l-3.78 14.1zm0-15.42l-3.78 14.1v-15.12z"/>
			<path id="Path 139" class="s3" d="m499.36 709.36l-1.74 15.6v-15.12zm0 15.12v-15.12l-1.74 15.6z"/>
			<path id="Path 140" class="s3" d="m499.36 464.44v-15.12l-1.74 14.64zm0-15.12l-1.74 14.64v-15.18z"/>
			<path id="Path 141" class="s3" d="m521.98 867.04v-6.84l-26.28-19.62zm0-6.84l-26.28-19.62v-6.84z"/>
			<path id="Path 142" class="s3" d="m504.52 827.32l-8.82 6.42v-6.42zm0 6.42v-6.42l-8.82 6.42z"/>
			<path id="Path 143" class="s3" d="m497.62 709.84l-3.54 15.96v-14.88zm0 15.12v-15.12l-3.54 15.96z"/>
			<path id="Path 144" class="s3" d="m497.62 463.96v-15.18l-3.54 14.1zm0-15.18l-3.54 14.1v-14.88z"/>
			<path id="Path 145" class="s3" d="m494.08 710.92l-2.1 15.42v-14.94zm0 14.88v-14.88l-2.1 15.42z"/>
			<path id="Path 146" class="s3" d="m494.08 462.88v-14.88l-2.1 14.4zm0-14.88l-2.1 14.4v-14.94z"/>
			<path id="Path 147" class="s3" d="m495.7 840.58v-13.26l-6.42 6.84zm0-13.26l-6.42 6.84v-6.84z"/>
			<path id="Path 148" class="s3" d="m489.28 834.16v-6.84l-0.36 6.42zm0-6.84l-0.36 6.42v-6.78z"/>
			<path id="Path 149" class="s3" d="m491.98 711.4l-3.24 15.54v-14.7zm0 14.94v-14.94l-3.24 15.54z"/>
			<path id="Path 150" class="s3" d="m491.98 462.4v-14.94l-3.24 14.1zm0-14.94l-3.24 14.1v-14.7z"/>
			<path id="Path 151" class="s3" d="m488.92 826.96l-0.48 6.78v-7.32zm0 6.78v-6.78l-0.48 6.78z"/>
			<path id="Path 152" class="s3" d="m488.74 712.24l-2.4 15.18v-14.7zm0 14.7v-14.7l-2.4 15.18z"/>
			<path id="Path 153" class="s3" d="m488.74 461.56v-14.7l-2.4 14.22zm0-14.7l-2.4 14.22v-14.7z"/>
			<path id="Path 154" class="s3" d="m486.34 712.72l-3 15.18v-14.58zm0 14.7v-14.7l-3 15.18z"/>
			<path id="Path 155" class="s3" d="m486.34 461.08v-14.7l-3 14.1zm0-14.7l-3 14.1v-14.58z"/>
			<path id="Path 156" class="s3" d="m488.44 826.42l-5.94 7.32v-13.26zm0 7.32v-7.32l-5.94 7.32z"/>
			<path id="Path 157" class="s3" d="m482.5 827.32l-1.8 6.42v-6.42zm0 6.42v-6.42l-1.8 6.42z"/>
			<path id="Path 158" class="s3" d="m482.5 827.32v-6.84l-1.8 4.98zm0-6.84l-1.8 4.98v-6.84z"/>
			<path id="Path 159" class="s3" d="m483.34 713.32l-2.64 14.94v-14.52zm0 14.58v-14.58l-2.64 14.94z"/>
			<path id="Path 160" class="s3" d="m483.34 460.48v-14.58l-2.64 14.16zm0-14.58l-2.64 14.16v-14.52z"/>
			<path id="Path 161" class="s3" d="m480.7 825.46v-6.84l-0.9 6zm0-6.84l-0.9 6v-6.84z"/>
			<path id="Path 162" class="s3" d="m504.52 825.76v-6.84l-24.72-18.06zm0-6.84l-24.72-18.06v-6.84z"/>
			<path id="Path 163" class="s3" d="m477.94 795.94v3l-1.56-1.5z"/>
			<path id="Path 164" class="s3" d="m479.8 817.78l-1.86 1.86v3.06zm-1.86 1.86v3.06l-1.56-1.56z"/>
			<path id="Path 165" class="s3" d="m479.8 817.78v6.84l-1.86-1.92z"/>
			<path id="Path 166" class="s3" d="m479.8 800.86v-6.84l-1.86 4.92zm0-6.84l-1.86 4.92v-3z"/>
			<path id="Path 167" class="s3" d="m480.7 713.74l-2.76 14.82v-14.4zm0 14.52v-14.52l-2.76 14.82z"/>
			<path id="Path 168" class="s3" d="m480.7 460.06v-14.52l-2.76 14.1zm0-14.52l-2.76 14.1v-14.4z"/>
			<path id="Path 169" class="s3" d="m477.94 714.16l-3 14.76v-14.4zm0 14.4v-14.4l-3 14.76z"/>
			<path id="Path 170" class="s3" d="m477.94 459.64v-14.4l-3 14.04zm0-14.4l-3 14.04v-14.4z"/>
			<path id="Path 171" class="s3" d="m474.94 714.52l-2.46 14.58v-14.28zm0 14.4v-14.4l-2.46 14.58z"/>
			<path id="Path 172" class="s3" d="m474.94 459.28v-14.4l-2.46 14.1zm0-14.4l-2.46 14.1v-14.28z"/>
			<path id="Path 173" class="s3" d="m472.48 714.82l-3.24 14.52v-14.28zm0 14.28v-14.28l-3.24 14.52z"/>
			<path id="Path 174" class="s3" d="m472.48 458.98v-14.28l-3.24 14.04zm0-14.28l-3.24 14.04v-14.28z"/>
			<path id="Path 175" class="s3" d="m469.24 715.06l-2.28 14.34v-14.16zm0 14.28v-14.28l-2.28 14.34z"/>
			<path id="Path 176" class="s3" d="m469.24 458.74v-14.28l-2.28 14.1zm0-14.28l-2.28 14.1v-14.16z"/>
			<path id="Path 177" class="s3" d="m466.96 715.24l-3.48 14.28v-14.22zm0 14.16v-14.16l-3.48 14.28z"/>
			<path id="Path 178" class="s3" d="m466.96 458.56v-14.16l-3.48 14.1zm0-14.16l-3.48 14.1v-14.22z"/>
			<path id="Path 179" class="s3" d="m463.48 729.52v-14.22l-1.98 14.16zm0-14.22l-1.98 14.16v-14.1z"/>
			<path id="Path 180" class="s3" d="m463.48 458.5v-14.22l-1.98 14.16zm0-14.22l-1.98 14.16v-14.1z"/>
			<path id="Path 181" class="s3" d="m461.5 715.36l-3.78 14.1v-14.1zm0 14.1v-14.1l-3.78 14.1z"/>
			<path id="Path 182" class="s3" d="m461.5 444.34l-3.78 14.1v-14.1zm0 14.1v-14.1l-3.78 14.1z"/>
			<path id="Path 183" class="s3" d="m457.72 729.46v-14.1l-1.74 13.98zm0-14.1l-1.74 13.98v-14.04z"/>
			<path id="Path 184" class="s3" d="m457.72 444.34l-1.74 14.16v-14.04zm0 14.1v-14.1l-1.74 14.16z"/>
			<path id="Path 185" class="s3" d="m455.98 729.34v-14.04l-4.02 13.86zm0-14.04l-4.02 13.86v-14.04z"/>
			<path id="Path 186" class="s3" d="m455.98 444.46l-4.02 14.22v-14.04zm0 14.04v-14.04l-4.02 14.22z"/>
			<path id="Path 187" class="s3" d="m451.96 729.16v-14.04l-1.5 13.92zm0-14.04l-1.5 13.92v-14.04z"/>
			<path id="Path 188" class="s3" d="m451.96 444.64l-1.5 14.16v-14.04zm0 14.04v-14.04l-1.5 14.16z"/>
			<path id="Path 189" class="s3" d="m450.46 729.04v-14.04l-4.2 13.62zm0-14.04l-4.2 13.62v-14.04z"/>
			<path id="Path 190" class="s3" d="m450.46 444.76l-4.2 14.46v-14.04zm0 14.04v-14.04l-4.2 14.46z"/>
			<path id="Path 191" class="s3" d="m446.26 728.62v-14.04l-1.26 13.92zm0-14.04l-1.26 13.92v-14.04z"/>
			<path id="Path 192" class="s3" d="m446.26 445.18l-1.26 14.16v-14.04zm0 14.04v-14.04l-1.26 14.16z"/>
			<path id="Path 193" class="s3" d="m445 728.5v-283.2l-4.44 282.6zm0-283.2l-4.44 282.6v-282z"/>
			<path id="Path 194" class="s3" d="m440.56 727.9v-282l-5.7 281.04zm0-282l-5.7 281.04v-280.08z"/>
			<path id="Path 195" class="s3" d="m434.86 726.94v-280.08l-5.58 278.82zm0-280.08l-5.58 278.82v-277.56z"/>
			<path id="Path 196" class="s3" d="m381.88 756.34l-2.52 2.52v-5.04z"/>
			<path id="Path 197" class="s3" d="m381.88 780.1l-2.52 2.52v-5.1z"/>
			<path id="Path 198" class="s3" d="m429.28 579.04l-49.92 15.72v-15.72zm0 15.72v-15.72l-49.92 15.72z"/>
			<path id="Path 199" class="s3" d="m379.36 777.52l-0.9 5.94v-6.84zm0 5.1v-5.1l-0.9 5.94z"/>
			<path id="Path 200" class="s3" d="m379.36 753.82l-0.9 5.88v-6.78zm0 5.04v-5.04l-0.9 5.88z"/>
			<path id="Path 201" class="s3" d="m379.36 579.04l-15.78 87.6v-87.6zm0 87.6v-87.6l-15.78 87.6z"/>
			<path id="Path 202" class="s3" d="m480.7 827.32l-120.06 6.42v-6.42zm0 6.42v-6.42l-120.06 6.42z"/>
			<path id="Path 203" class="s3" d="m378.46 783.46v-6.84l-17.82-11.1zm0-6.84l-17.82-11.1v-6.84z"/>
			<path id="Path 204" class="s3" d="m378.46 759.7v-6.78l-17.82-11.16zm0-6.78l-17.82-11.16v-6.84z"/>
			<path id="Path 205" class="s3" d="m363.58 650.86l-2.94 15.78v-15.78zm0 15.78v-15.78l-2.94 15.78z"/>
			<path id="Path 206" class="s3" d="m360.64 666.64l-6.48 167.1v-167.1zm0 167.1v-167.1l-6.48 167.1z"/>
			<path id="Path 207" class="s3" d="m360.64 650.86l-6.48 15.78v-15.78zm0 15.78v-15.78l-6.48 15.78z"/>
			<path id="Path 208" class="s3" d="m336.34 710.5v6.78l-3.48-3.42z"/>
			<path id="Path 209" class="s3" d="m354.16 752.2l-17.82-18v6.84zm-17.82-18v6.84l-3.48-3.48z"/>
			<path id="Path 210" class="s3" d="m354.16 752.2v6.78l-17.82-17.94z"/>
			<path id="Path 211" class="s3" d="m354.16 735.28v-6.84l-17.82-11.16zm0-6.84l-17.82-11.16v-6.78z"/>
			<path id="Path 212" class="s3" d="m354.16 650.86l-51.78 15.78v-15.78zm0 15.78v-15.78l-51.78 15.78z"/>
			<path id="Path 213" class="s3" d="m363.58 579.04l-61.2 15.72v-15.72zm0 15.72v-15.72l-61.2 15.72z"/>
			<path id="Path 214" class="s3" d="m302.38 579.04l-15.72 87.6v-87.6zm0 87.6v-87.6l-15.72 87.6z"/>
			<path id="Path 215" class="s3" d="m260.32 733.3h-0.12v-0.24z"/>
			<path id="Path 216" class="s3" d="m260.2 440.5l-29.58 43.98v-43.98z"/>
			<path id="Path 217" class="s3" d="m260.2 733.06l-29.58 0.24v-44.16zm0 0.24v-0.24l-29.58 0.24z"/>
			<path id="Path 218" class="s3" d="m230.62 717.58v-28.44l-63.66-66.12zm0-28.44l-63.66-66.12v-28.26z"/>
			<path id="Path 219" class="s3" d="m286.66 579.04l-119.7 15.72v-15.72zm0 15.72v-15.72l-119.7 15.72z"/>
			<path id="Path 220" fill-rule="evenodd" class="s4" d="m166.96 623.02v-43.98zm0-43.98v43.98z"/>
			<path id="Path 221" class="s3" d="m230.62 456.22l-63.66 122.82v-28.26zm0 28.26v-28.26l-63.66 122.82z"/>
			<path id="Path 222" class="s3" d="m166.96 623.02v-72.24l-14.82 50.16zm0-72.24l-14.82 50.16v-28.08z"/>
			<path id="Path 223" class="s3" d="m152.14 572.86l-9.48 42.06v-56.04zm0 28.08v-28.08l-9.48 42.06z"/>
			<path id="Path 224" class="s3" d="m72.94 689.68v43.62h-29.58z"/>
			<path id="Path 225" class="s3" d="m230.62 717.58l-157.68 15.72v-15.72zm0 15.72v-15.72l-157.68 15.72z"/>
			<path id="Path 226" class="s3" d="m142.66 586.9l-69.72 130.68v-27.9zm0 28.02v-28.02l-69.72 130.68z"/>
			<path id="Path 227" class="s3" d="m142.66 586.9v-28.02l-69.72-74.58zm0-28.02l-69.72-74.58v-28.08z"/>
			<path id="Path 228" class="s3" d="m230.62 440.5l-157.68 15.72v-15.72zm0 15.72v-15.72l-157.68 15.72z"/>
			<path id="Path 229" class="s3" d="m72.94 440.5h-29.58v0.24zm-29.58 0v0.24l-0.18-0.24z"/>
			<path id="Path 230" class="s3" d="m72.94 440.5v43.8l-29.58-43.56z"/>
			<path id="Path 231" class="s5" d="m429.29 725.66c41.74 9.84 85.69 0.37 119.67-25.78 33.99-26.15 54.4-66.21 55.59-109.07m0-7.88c-1.19-42.86-21.6-82.92-55.59-109.07-33.98-26.15-77.93-35.62-119.67-25.78m15.75 266.36c49.24 5.92 97.48-17.01 123.97-58.94 26.49-41.92 26.49-95.34 0-137.26-26.49-41.93-74.73-64.86-123.97-58.94m-302.38 127.6l-99.48-146.4m108.96 132.36l-79.2-116.64m0 0h157.68m-187.44-15.72h217.02m0 0l-93.24 138.54m63.66-122.82l-78.48 116.64m0 28.08l-79.2 116.64m69.72-130.68l-99.3 146.4m29.58-15.72h157.68m-187.26 15.72h216.96m-29.7-15.72l-78.48-116.64m108.18 132.36l-93.36-138.54m262.32 0h-49.92m-92.7 0h-119.7m262.32-15.72h-262.32m278.04-119.7v255.12m-15.72-266.34v130.92m0 15.72v130.92m-49.92-130.92v71.88h-18.72m2.94-71.88v56.1m-9.42 15.78h-67.5m76.92-15.78h-61.2m-15.72 15.78v-71.88m15.72 56.1v-56.1m51.78 71.88v61.8m0 6.84v16.92m0 6.78v2.58m0 0v72.18m6.48-167.1v68.28m0 6.84v16.92m0 6.84v4.08m-6.48 64.14h134.28m0 0h0.48m6.78 0h16.8m6.78 0h128.34m-286.98-6.42h122.58m6.06 0h16.8m6.78 0h128.28m0 0v-99.96m0 0v-2.58m0-6.84v-16.86m0-6.84v-104.1m6.48 243.6v-98.34m0 0v-4.08m0-6.84v-16.92m0-6.84v-117.06m-339.9 101.46h-3.96"/>
			<path id="Path 232" class="s6" d="m307.72 847.36l-3.96 35.58v-35.58zm0 35.58v-35.58l-3.96 35.58z"/>
			<path id="Path 233" class="s6" d="m307.72 793.3l-3.96 35.52v-35.52zm0 35.52v-35.52l-3.96 35.52z"/>
			<path id="Path 234" class="s6" d="m307.72 739.18l-3.96 35.58v-35.58zm0 35.58v-35.58l-3.96 35.58z"/>
			<path id="Path 235" class="s6" d="m307.72 685.12l-3.96 35.58v-35.58zm0 35.58v-35.58l-3.96 35.58z"/>
			<path id="Path 236" class="s5" d="m303.76 720.7h3.96m296.82-130.56h36.6m-333.42 94.98h-3.96m0 0v35.58m0 18.48v35.58m0 18.54v35.52m0 18.54v35.58m59.82-288.18v56.1m-61.2-56.1h61.2m240.96-11.82v0.72m0 6.48v0.72m0-7.2h43.08m-339.9 101.46v35.58m0 18.48v35.58m0 18.54v35.52m0 18.54v35.58m0-143.76h-3.96m3.96 35.58h-3.96m3.96 18.54h-3.96m3.96 35.52h-3.96m3.96 18.54h-3.96m3.96 35.58h-3.96m56.88-113.34v57.72m0-160.68h-6.48m267.42 7.92l19.56 19.68m6.48 6.48l19.56 19.68m0 0l-3.42 3.42m-45.6-45.9l22.98 23.16m6.48 6.48l16.14 16.26m-42.18-49.26l-3.42 3.36m3.42 20.34l19.56 19.68m6.48 6.54l19.56 19.68m0 0l-3.42 3.36m-45.6-45.84l22.98 23.1m6.48 6.54l16.14 16.2m-42.18-49.26l-3.42 3.42m-138.36 92.34l33.06 33.3m6.42 6.42l6.12 6.18m-49.02-42.48l29.7 29.88m6.42 6.42l9.48 9.54m-42.18-49.26l-3.42 3.42m3.42 20.34l9.48 9.54m6.42 6.42l29.7 29.94m-49.02-42.54l6.12 6.18m6.42 6.42l33.06 33.3m-42.18-49.26l-3.42 3.36m49.02 18.78l-3.42 3.36m3.42 20.4l-3.42 3.36m-185.64-156.54l17.82 17.94m6.48 6.48l21.24 21.42m-49.02-42.48l21.3 21.42m6.48 6.48l17.82 17.94m-42.12-49.2l-3.48 3.36m3.48 20.34l17.82 18m6.48 6.48l21.24 21.42m-49.02-42.54l21.3 21.42m6.48 6.54l17.82 17.94m-42.12-49.26l-3.48 3.36m49.02 18.78l-3.42 3.36m3.42 20.4l-3.42 3.36"/>
		</g>
	</g>
</svg>